<?xml version="1.0" encoding="UTF-8" standalone="no"?>
<svg width="128px" height="128px" viewBox="0 0 128 128" version="1.1" xmlns="http://www.w3.org/2000/svg" xmlns:xlink="http://www.w3.org/1999/xlink" xmlns:sketch="http://www.bohemiancoding.com/sketch/ns">
    <!-- Generator: Sketch 3.3 (11970) - http://www.bohemiancoding.com/sketch -->
    <title>Plugin icon</title>
    <desc>Created with Sketch.</desc>
    <defs>
        <radialGradient cx="50%" cy="0%" fx="50%" fy="0%" r="346.222951%" id="radialGradient-1">
            <stop stop-color="#7BAC48" offset="0%"></stop>
            <stop stop-color="#000000" offset="100%"></stop>
        </radialGradient>
        <filter x="-50%" y="-50%" width="200%" height="200%" filterUnits="objectBoundingBox" id="filter-2">
            <feOffset dx="4" dy="5" in="SourceAlpha" result="shadowOffsetOuter1"></feOffset>
            <feGaussianBlur stdDeviation="4" in="shadowOffsetOuter1" result="shadowBlurOuter1"></feGaussianBlur>
            <feColorMatrix values="0 0 0 0 0   0 0 0 0 0   0 0 0 0 0  0 0 0 0.7 0" in="shadowBlurOuter1" type="matrix" result="shadowMatrixOuter1"></feColorMatrix>
            <feMerge>
                <feMergeNode in="shadowMatrixOuter1"></feMergeNode>
                <feMergeNode in="SourceGraphic"></feMergeNode>
            </feMerge>
        </filter>
    </defs>
    <g id="Page-1" stroke="none" stroke-width="1" fill="none" fill-rule="evenodd" sketch:type="MSPage">
        <g id="Plugin-icon" sketch:type="MSLayerGroup">
            <rect id="Rectangle-1" fill="url(#radialGradient-1)" sketch:type="MSShapeGroup" x="0" y="0" width="128" height="128"></rect>
            <text id="VIDEO-GALLERY" fill="white" filter="url(#filter-2)" sketch:type="MSTextLayer" font-family="Wawati SC" font-size="12" font-weight="normal" sketch:alignment="middle">
                <tspan x="15.842" y="112" fill="#FFFFFF">VIDEO GALLERY</tspan>
            </text>
            <g id="Group" transform="translate(14.000000, 84.000000)" fill="#FFFFFF" sketch:type="MSShapeGroup">
                <g id="Shape-+-Shape" transform="translate(0.000000, 1.000000)">
                    <path d="M10,4 L5,0 L5,8 L10,4 Z" id="Shape"></path>
                    <path d="M5,4 L0,0 L0,8 L5,4 Z" id="Shape"></path>
                </g>
                <g id="Shape-+-Shape" transform="translate(21.000000, 1.000000)">
                    <path d="M0,4 L5,8 L5,0 L0,4 Z" id="Shape"></path>
                    <path d="M5,4 L10,8 L10,0 L5,4 Z" id="Shape"></path>
                </g>
                <g id="Shape-+-Shape-+-Shape" transform="translate(43.000000, 1.000000)">
                    <path d="M5,4 L0,0 L0,8 L5,4 Z" id="Shape"></path>
                    <path d="M7,1 C7,0.5 7.5,0 8,0 C8.5,0 9,0.5 9,1 L9,7 C9,7.5 8.5,8 8,8 C7.5,8 7,7.5 7,7 L7,1 L7,1 Z" id="Shape"></path>
                    <path d="M10,1 C10,0.5 10.5,0 11,0 C11.5,0 12,0.5 12,1 L12,7 C12,7.5 11.5,8 11,8 C10.5,8 10,7.5 10,7 L10,1 L10,1 Z" id="Shape"></path>
                </g>
                <path d="M70.5,7 L73,9 L73,1 L70.5,3 L68,3 L68,5 L68,7 L70.5,7 Z" id="Shape"></path>
                <g transform="translate(86.000000, 0.000000)" id="Shape">
                    <path d="M2.5,7 L5,9 L5,1 L2.5,3 L0,3 L0,5 L0,7 L2.5,7 Z"></path>
                    <path d="M6,2 C6,2 7.14,3.53 7.14,4.98 C7.14,6.59 6,8 6,8 L7,8 C7,8 8,7 8,5 C8,3 6.98,2 6.98,2 L6,2 L6,2 Z"></path>
                    <path d="M8,1 C8,1 10,2.38 10,5 C10,7.62 8,9 8,9 L9,9 C9,9 11,7.66 11,5 C11,2.33 9,1 9,1 L8,1 L8,1 Z"></path>
                    <path d="M11,0 C11,0 13,2.02 13,5 C13,8 11,10 11,10 L12,10 C12,10 14,8.98 14,5 C14,1 12,0 12,0 L11,0 L11,0 Z"></path>
                </g>
            </g>
            <g id="Player" transform="translate(64.000000, 44.500000) rotate(-90.000000) translate(-64.000000, -44.500000) translate(31.500000, -5.500000)" fill="#FFFFFF" sketch:type="MSShapeGroup">
                <path d="M0,0 L0,100 L65,100 L65,0 L0,0 L0,0 Z M5.41666667,9.09090909 L10.8333333,9.09090909 L10.8333333,18.1818182 L5.41666667,18.1818182 L5.41666667,9.09090909 L5.41666667,9.09090909 Z M54.1666667,9.09090909 L59.5833333,9.09090909 L59.5833333,18.1818182 L54.1666667,18.1818182 L54.1666667,9.09090909 L54.1666667,9.09090909 Z M5.41666667,27.2727273 L10.8333333,27.2727273 L10.8333333,36.3636364 L5.41666667,36.3636364 L5.41666667,27.2727273 L5.41666667,27.2727273 Z M54.1666667,27.2727273 L59.5833333,27.2727273 L59.5833333,36.3636364 L54.1666667,36.3636364 L54.1666667,27.2727273 L54.1666667,27.2727273 Z M5.41666667,45.4545455 L10.8333333,45.4545455 L10.8333333,54.5454545 L5.41666667,54.5454545 L5.41666667,45.4545455 L5.41666667,45.4545455 Z M54.1666667,45.4545455 L59.5833333,45.4545455 L59.5833333,54.5454545 L54.1666667,54.5454545 L54.1666667,45.4545455 L54.1666667,45.4545455 Z M5.41666667,63.6363636 L10.8333333,63.6363636 L10.8333333,72.7272727 L5.41666667,72.7272727 L5.41666667,63.6363636 L5.41666667,63.6363636 Z M54.1666667,63.6363636 L59.5833333,63.6363636 L59.5833333,72.7272727 L54.1666667,72.7272727 L54.1666667,63.6363636 L54.1666667,63.6363636 Z M5.41666667,81.8181818 L10.8333333,81.8181818 L10.8333333,90.9090909 L5.41666667,90.9090909 L5.41666667,81.8181818 L5.41666667,81.8181818 Z M54.1666667,81.8181818 L59.5833333,81.8181818 L59.5833333,90.9090909 L54.1666667,90.9090909 L54.1666667,81.8181818 L54.1666667,81.8181818 Z M48.75,9.09090909 L48.75,91.5909091 L16.25,91.5909091 L16.25,9.09090909 L48.75,9.09090909 Z" id="Player-Shape"></path>
                <path d="M42.5,50 L22.5,40 L22.5,60 L42.5,50 Z" id="Path" transform="translate(32.500000, 50.000000) rotate(-270.000000) translate(-32.500000, -50.000000) "></path>
            </g>
        </g>
    </g>
</svg>